<svg width="14" height="14" viewBox="0 0 14 14" fill="none" xmlns="http://www.w3.org/2000/svg">
<path d="M12.6969 2.7422C12.689 2.72814 12.6781 2.71407 12.6656 2.70314C12.5875 2.62501 12.4609 2.62501 12.3828 2.70314L9.69061 5.39532L8.62967 4.33439L11.3234 1.64064C11.3359 1.62814 11.3453 1.61564 11.3547 1.60157C11.4109 1.50626 11.3797 1.38439 11.2844 1.32814C9.74999 0.421886 7.74061 0.629699 6.4203 1.94845C5.37342 2.99532 5.02655 4.4797 5.38124 5.81407L0.803112 10.3922C0.756237 10.4391 0.759362 10.5156 0.807799 10.5641L3.45936 13.2156C3.5078 13.2641 3.58592 13.2672 3.63124 13.2203L8.2078 8.64376C9.54374 9.00001 11.0281 8.6547 12.0765 7.60626C13.3953 6.28595 13.6031 4.27657 12.6969 2.7422V2.7422ZM11.2812 6.80939C10.3734 7.7172 9.01092 7.8922 7.92811 7.33439L7.79061 7.47189L7.78905 7.47032L3.5078 11.7531L2.2703 10.5156L5.86561 6.92032C5.86561 6.92032 5.86561 6.92189 5.86717 6.92189L6.69217 6.09689C6.13436 5.01407 6.30936 3.65157 7.21717 2.74376C7.50996 2.45071 7.86256 2.22432 8.25087 2.08005C8.63919 1.93578 9.05407 1.87703 9.46717 1.90782L7.39061 3.98282C7.29682 4.07672 7.24414 4.20401 7.24414 4.33673C7.24414 4.46945 7.29682 4.59674 7.39061 4.69064L9.33592 6.63595C9.42982 6.72974 9.55711 6.78242 9.68983 6.78242C9.82255 6.78242 9.94984 6.72974 10.0437 6.63595L12.1187 4.56095C12.1765 5.37032 11.8937 6.19845 11.2812 6.80939V6.80939Z" fill="black"/>
</svg>
